<?xml version="1.0" encoding="utf-8"?>
<!-- Generator: Adobe Illustrator 21.1.0, SVG Export Plug-In . SVG Version: 6.00 Build 0)  -->
<svg version="1.1" id="Layer_1" xmlns="http://www.w3.org/2000/svg" xmlns:xlink="http://www.w3.org/1999/xlink" x="0px" y="0px"
	 viewBox="0 0 358 101.8" style="enable-background:new 0 0 358 101.8;" xml:space="preserve">
<style type="text/css">
	.st0{fill:#F15F22;}
</style>
<metadata><?xpacket begin="﻿" id="W5M0MpCehiHzreSzNTczkc9d"?>
<x:xmpmeta xmlns:x="adobe:ns:meta/" x:xmptk="Adobe XMP Core 5.6-c137 79.159768, 2016/08/11-13:24:42        ">
   <rdf:RDF xmlns:rdf="http://www.w3.org/1999/02/22-rdf-syntax-ns#">
      <rdf:Description rdf:about=""
            xmlns:xmp="http://ns.adobe.com/xap/1.0/"
            xmlns:xmpGImg="http://ns.adobe.com/xap/1.0/g/img/"
            xmlns:xmpTPg="http://ns.adobe.com/xap/1.0/t/pg/"
            xmlns:stDim="http://ns.adobe.com/xap/1.0/sType/Dimensions#"
            xmlns:xmpG="http://ns.adobe.com/xap/1.0/g/"
            xmlns:dc="http://purl.org/dc/elements/1.1/">
         <xmp:CreatorTool>Adobe Illustrator CC 2017 (Macintosh)</xmp:CreatorTool>
         <xmp:CreateDate>2018-05-03T21:25:20-05:00</xmp:CreateDate>
         <xmp:Thumbnails>
            <rdf:Alt>
               <rdf:li rdf:parseType="Resource">
                  <xmpGImg:width>256</xmpGImg:width>
                  <xmpGImg:height>52</xmpGImg:height>
                  <xmpGImg:format>JPEG</xmpGImg:format>
                  <xmpGImg:image>/9j/4AAQSkZJRgABAgEASABIAAD/7QAsUGhvdG9zaG9wIDMuMAA4QklNA+0AAAAAABAASAAAAAEA&#xA;AQBIAAAAAQAB/+4ADkFkb2JlAGTAAAAAAf/bAIQABgQEBAUEBgUFBgkGBQYJCwgGBggLDAoKCwoK&#xA;DBAMDAwMDAwQDA4PEA8ODBMTFBQTExwbGxscHx8fHx8fHx8fHwEHBwcNDA0YEBAYGhURFRofHx8f&#xA;Hx8fHx8fHx8fHx8fHx8fHx8fHx8fHx8fHx8fHx8fHx8fHx8fHx8fHx8fHx8f/8AAEQgANAEAAwER&#xA;AAIRAQMRAf/EAaIAAAAHAQEBAQEAAAAAAAAAAAQFAwIGAQAHCAkKCwEAAgIDAQEBAQEAAAAAAAAA&#xA;AQACAwQFBgcICQoLEAACAQMDAgQCBgcDBAIGAnMBAgMRBAAFIRIxQVEGE2EicYEUMpGhBxWxQiPB&#xA;UtHhMxZi8CRygvElQzRTkqKyY3PCNUQnk6OzNhdUZHTD0uIIJoMJChgZhJRFRqS0VtNVKBry4/PE&#xA;1OT0ZXWFlaW1xdXl9WZ2hpamtsbW5vY3R1dnd4eXp7fH1+f3OEhYaHiImKi4yNjo+Ck5SVlpeYmZ&#xA;qbnJ2en5KjpKWmp6ipqqusra6voRAAICAQIDBQUEBQYECAMDbQEAAhEDBCESMUEFURNhIgZxgZEy&#xA;obHwFMHR4SNCFVJicvEzJDRDghaSUyWiY7LCB3PSNeJEgxdUkwgJChgZJjZFGidkdFU38qOzwygp&#xA;0+PzhJSktMTU5PRldYWVpbXF1eX1RlZmdoaWprbG1ub2R1dnd4eXp7fH1+f3OEhYaHiImKi4yNjo&#xA;+DlJWWl5iZmpucnZ6fkqOkpaanqKmqq6ytrq+v/aAAwDAQACEQMRAD8A9U4q7FXYq7FXYq8f/Ohb&#xA;n9O2RJY2wtRxXfgH9R+R8KkUznu2L8Qd1PZ+zRj4Uv53F+gJB+XE08fnPTfRLfG7JIqmlUKMWr4g&#xA;UrmL2eSM0adh2zEHSzv8bvW/P3mK+0DQRfWSxtO0yRD1QWUBgxJoCv8ALm/12olix8UedvH9k6OG&#xA;ozcErqr2ecr+cXmsMCY7UgHcemwqP+DzTfytl8npT7O6fvl8/wBj2rOleHdirsVdirsVYl+ahI8l&#xA;XlD1eGv/ACNXNf2n/cn4fe7jsH/Go/H7nhGcu98+m9LJOmWhJqTDGST1rwGdri+ke58uz/3kveUT&#xA;k2p2KvGvzm+sjzJbB2YwG1UxLvxB5uGp2r0r9Gc52vfiDup7X2b4fANc+L9ASX8uOX+NdM41+29a&#xA;eHpNmN2f/fR/HRzu2f8AFZ/D7w9/zrHzx2KuxV2KuxVDamzLpt2ykqywyEEbEEIchk+k+5twC5x9&#xA;4fMucU+ovcfylJPk6IE1AmlA9hyrnT9lf3I95eE9oP8AGT7gzLNi6R2KuxV5peaZ+cUd1IkF+LiE&#xA;MfTmUwIGFdvhZVI+WaWePWA7Gx8HqMefswxFxo/5zGta8z/mXolyltqd5JbzSL6iLSB6rUitUDDq&#xA;Mw82p1OM1I0fg7PTaHQ548WOII/zv0pf/wArG86/9XR/+Aj/AOacp/lDN/O+5yP5H0v8wfb+tUh/&#xA;MvzrE/L9Ilx3V44mB/4T9WEdo5x/F9yJdi6Uj6PtP62e+SvzRi1a5j07VY0tr2T4YJ0qIpG/lINe&#xA;LHtvQ+2bXR9pDIeGe0nnu0+wzhiZ4zxRHMdR+tR/Mjz1rmg6xb2OnmJYntlmcunMlmd1puegCZHt&#xA;DWzxTEY9zPsbsvFqMRnO74q+wfrS3yL5+13U/NFpp90tv6FwJQ5jiCN8ETOKEe65TotdknlETVHy&#xA;8nK7U7JxYtPKceKxXXzASn8z/NGpX2sXGjuVSwspv3cajdmC05Oe/U0yjtLUylMw/hiXM7D0OPHi&#xA;GUfXIMIzWO8Z9on5o+a5tUsLWeSGSKWaKKWsYDMrMFO4pvvm1w9p5TIA1zDz+q7C08ccpAEEAnmm&#xA;XnXz75u0PzFc2MTQrbDi9tyjBJjYbGp671GXazXZsWQxFV0cXszsnTZ8Imb4uu/VFfl9+Ymr6xrv&#xA;6N1Rois0bG3ZF4H1E+Kmx3qtfuyzQdoTyZOGfVq7X7Hx4cXHjvY7+5nPmPV10fQ73UiATbxlo1bo&#xA;XPwoD83IGbPUZfDgZdzodHp/Gyxh3n7Ov2PIP+Vt+cP9+Qf8ih/XOe/lXN5fJ7L/AEP6buPzZT5k&#xA;vtVv/wAqPruqcfrVy0UtEXiODTD09vdaHM7UTnLScUuZr73VaLFjx9ocGP6Y2PjW7yLNA9gz3U/z&#xA;a1c2tvaaOgs44YkR53CySMyqAaBqoBX2Jza5O1Z0BDZ5/B7P4+IyyniJJ25D9aBsfzU8420itLdJ&#xA;dxjrFNGlD/skCN+OVQ7TzRO5tyMvYWmkNhwnyJ/Tb1nyj5tsfMmnm4gHpXEVFurYmpRj0odqqabH&#xA;N9pNVHNGxz6h5DtDs+emnwneJ5HvYv8AmZ5y1jRNTtLWyEJikg9VvVjEh5Fyvf2GYPaOrnikBGuT&#xA;texOzsWfHKU7sGtjSWeRfP2van5os9PuRbiC4Eok9OII3wRM4oR7qMp0WuyTyiJqjfTycrtTsnDi&#xA;08px4rFdfMBNvzJ8761oGo2lrpxjVZYTLIzpzJJYqBuf8nMjtHWzxSAj3OH2L2Zi1EJSnexpj2if&#xA;m3rf6Ug/SzxHTySLjhF8QFDQjjv1zDw9qz4hx/T7nZan2fxeGfDB4+m6hq/5veY7i8LadwsrRW+C&#xA;MosjsoP7bMG6/wCTTI5e1chPp2DPT+z2CMfXcpfL5ften+bPNdh5c0761cgyTSErbWymjSMB49lH&#xA;c5u9Vqo4Y2fg8toNBPUz4Y7Acz3PJNQ/NPzhdTForlbOKtVihjSg/wBk4Zj9+aDJ2nmkdjT2GHsL&#xA;TQG44j5n9SM0782tbW3ntdWRb2KaN0EqhYpFLKQD8ICEfR9OWY+1J0RP1W0ZvZ/EZCWP0kH3j9bB&#xA;M1bv3uH5TMq+TUZiFVZpiSdgACM6bsv+5+JeE7fF6r4BjPmX8379rqS30JEitkJVbuRebvT9pVPw&#xA;qD7gn5ZhajtaV1j5d7tdF7OwEQc1mXd3MfX80PPAIJ1EEDsYIKH7o8xP5Sz/AM77B+p2B7D0n8z7&#xA;ZfrZV5V/NnUbzULbTtSs1ma5kWJJ7eqsC5pVkJIPXelMztL2pKUhGQ59zqdf2BCEDPHKuEXR/Wyv&#xA;zl5W1TWkhk07VJdPngDD01Z1iev83Aggjx3zP1mmlkrhkYkOp7N12PBYnATB+Y+bzXzJ5A1qysZ9&#xA;UvtWtrtoAOQaV2lIrSilxud+lc02o0M4xMpSBrzen0Xa2KcxjhCUb8hX2Mb0DRLrW9Wg022IWSYm&#xA;rt9lVUVZjTwAzCwYTkmIjq7PV6mODGZy5B6JqH5LQCxJ0+/d71RUCZVEbnw+HdfxzcZOxxw+mXqe&#xA;bw+0p4/XH0+XP9qI8k/lYLGeLUtbIe6iYPBZoaojKdmdh9o13AG3zyej7M4TxT59zV2n274gMMX0&#xA;nmf1JB+c/wDylFr/AMwMf/J6XMTtj+9H9X9Jdj7N/wCLy/rn7opV+WH/ACnOm/8APf8A6h5Mo7N/&#xA;v4/H7i5fbn+KT+H+6DIvzV8nWtosvmGGd/Uup0SW3YAqCyGrKev7PTMvtPSCN5AeZdb2D2jKdYSN&#xA;ox5vNM0z072LR/yh022ubO+e+mkeFo5jGFVQWWjU7kCudDi7KjEiVnZ4zUe0OSUZQERvYWfnJofr&#xA;6ZbaxEv7y0b0pyP99SH4Sf8AVf8A4lg7Xw3ETHRl7OarhmcR5S3HvH7PueW6NqUmmaraahHXlbSr&#xA;JQdwD8S/SNs0eHIYTEh0L1epwjLjlA/xB6d+cOuRnRrCxt3DLfN9YYjvEg+H6GZq/Rm77WzDgjEf&#xA;xbvK+zulPiymR9O3xea+X9Jk1fWrPTkr/pEgV2HZBu7fQoJzS4MXiTEe96jV6gYcUpnoP7Hsf5oR&#xA;RxeRrmKNQscbQKijoFEigDOi7SFYCB5PF9hyJ1YJ5+r7nhecw949K8r/AJRx3+lQ32qXUkD3KiSK&#xA;CILVUYVUuWB3I7U2zc6bsrjgJSNW8zrvaA48hhjiDw9SxTzl5SufLWpLbvJ61tMpe2npx5AGhBHZ&#xA;l75gavSnDKuYPJ23ZvaEdTDiAqQ5hF/lnq8mn+bbReVIb0m2mXx5/Y+5wMs7Oy8GYdx2ae29OMmm&#xA;l3x3+XP7E5/On/jvWP8AzC/8zGzJ7Y/vB7nC9mv7mX9b9ASX8sP+U503/nv/ANQ8mY3Zv9/H4/cX&#xA;O7c/xSfw/wB0E6/On/jvWP8AzC/8zGzJ7Y/vB7nB9mv7mX9b9AeeZqHo2TaJ+XfmjV4Y7iG2EFpL&#xA;QpPOwQFT+0F+2R9GZuHs/LkFgUPN1eq7Y0+EmJNyHQfikR+aOqyX3m25iLVhsQtvEvyHJz8+ZOS7&#xA;SymWYjpHZr7DwDHpgest/wBX2Jf5P8qXXmTUzaxOIYIl9S5nIrxWtAANqsT0yrSaU5pUNh1cntHX&#xA;x02PiIsnkGXeZfyiisdKmvdLupJ5bdTJJBKF+JFFW4lQNwO3fNhqOyhGBlE3Tp9F7QmeQRyRAB6h&#xA;5nmleneueTxOfyo1EQV9X07vjx6/ZNae9M3+kv8AKSr+k8f2jX8oQvlcXkeaB7Bmeh6h+W09hDaa&#xA;xps1rdooWS/ieRwzd3IU1FfDgc2OHJpjECcSD3/j9TpdVh10ZmWKYlH+aQPx9rNvJHkryta6gda0&#xA;vUDqKICtup4kxFhQlqUPLjtuBmz0WjxRlxwlxfodF2n2nqJw8LJDg7/P9nzZtd20V1azW0wJinRo&#xA;5ADQ8WFDQjpmylESBB6ujxzMJCQ5h5RqX5ceULK8e3n8ypayLQ+hMIzIoIqOXxL29s0OTs/DE0cl&#xA;PXYe2dTOPEMPEO8XX3JL5J1LTNA87DndJPYEyWwvqFFo32ZKN9kVArmPo8kcWfnceVub2nhyajS7&#xA;Rqex4f0Pa73V9LsrP67dXUUVrSomZhxb/Vp9o+wzpJ5YxHETs8Pj0+ScuGMSZdyhonmTRdchaXTL&#xA;lZxGaSJQq6+FUYBqHscjh1EMouJts1Wiy4DWQU8r/Of/AJSi1/5gY/8Ak9Lmi7Y/vR/V/SXrPZv/&#xA;ABeX9c/dFKvyw/5TnTf+e/8A1DyZR2b/AH8fj9xcvtz/ABSfw/3Qeh/nD/yiaf8AMVH/AMRfNv2t&#xA;/dfF5z2d/wAY/wA0/oeJ5zT3D6astRtLi1tpkuI3+sIrRkMPjJFfhztIZAQDfN8vy4ZRkQQdnarp&#xA;0Gpabc2E4/dXMbRsfDkNiPcHcY5cYnExPVGDMcUxMc4m3zZfWc9leT2c44zW8jRSD/KQ0OcbOBjI&#xA;g8w+nYsgnESHIi199qV7fLbLdSGQWkK20Ff2YkJKr9HLDPJKVX0FMcWGOO+EVxGz73oX5MaL6l1e&#xA;azIvwwj6vbk/zt8Tn6FoPpzb9j4bJmemzzvtJqajHEOu5/R+PJk35tEjydKAaAzRA+45VzN7V/uT&#xA;7w6v2f8A8ZHuLw3OYe7fRHk/XtP1fQrSW2lUyRRJHcQ1+KN1UAgjrTbY512kzxyYwR3PnHaOknhz&#xA;SEhsTse95x+b+vWGoalZWVpIsxsFk9eRDVQ8pX4Kjuvp7/PNP2tnjOQiN+F6X2d0s8cJTkK46r4X&#xA;v9rGfJVrJc+bdJjjFSt1HKf9WJvUb8FzC0ceLNEef3O07TmI6aZP80j57Mo/On/jvWP/ADC/8zGz&#xA;O7Y/vB7nVezX9zL+t+gJL+WH/Kc6b/z3/wCoeTMbs3+/j8fuLnduf4pP4f7oJ1+dP/Hesf8AmF/5&#xA;mNmT2x/eD3OD7Nf3Mv636AxLypYQ3/mTTbSccoZZ0Eqnoyg1K/SBTNfpYCeSIPK3ca/KceCchzEX&#xA;0cAAAAKAbADOxfNHz359tnt/OGqo/VpzIPlIA4/Bs5LXRrNL3vo3ZMxLTQI7q+Wyf/lDrtjp+rXd&#xA;ndyLD9eRBDK5AHOMmiVPTkH2zK7JzxhMxP8AE672h0s8mOMoi+C7+P8AY9N81a9YaNotzc3MihzG&#xA;y28JI5SORRVA6nfr7Zu9VnjjgSXl9BpJ5sojEddz3B855x76S9x/KUA+TowdwZ5f1jOm7K/ufiXh&#xA;PaD/ABk+4Me1b8ttC1i6uZfK+pwCaNj69kWDxqxP7LLVlFfYjMTL2djyEnFIX3Oy0/bObDEDUQNH&#xA;lLr+1hGu+UfMGhgNqNqY4Wbik6kPGT/rKTSvvmsz6TJi+obO80vaGHP9ErPd1Q+ga5e6LqkN/auV&#xA;MbD1EB2kSvxIw7gjI4M0schINmr0sc+Mwl/Z5vpPOyfMmIed/K/k+dH1rWhLB6YVZbiDlVv2U5KF&#xA;f5Vpmv1umwn1z29zuezNdqYkYsVG+h/AeU+Zk8lrHCfLz3TSlj64uAOAWm1Nga1zQ6kYdvDv4vW6&#xA;I6qz4wjXSkgzFdgy/wDLjy7rt/rcF9ZtJaWls4ae8FQCoO8a/wAxboR08c2HZ+nySmJR2A6/odP2&#xA;zrMWPEYSqUpch+nyR/5zg/4otT2+pJ/ydly3tj+9H9X9Jcf2b/uJf1z90Ur/ACw/5TnTf+e//UPJ&#xA;lHZv9/H4/cXL7c/xSfw/3Qeq/mHodzrHle4t7VS9zCyzwxjqxTqo9ypNPfN7r8JyYiBz5vI9j6qO&#xA;HUCUvpOxeAsrKxVgVZTQg7EEZyj6GDaceTlkbzXpAj+19bhJ/wBUOC3/AAtcyNJfixr+cHD7RI/L&#xA;5L/mn7n0XnYPmrxn84NEFprsOpRikWoJ+8p/v2Kit96lfxznO1sPDkEh/F9723s7quPEcZ5w+4/g&#xA;sCzVPQPojyZov6H8tWVky8ZuHqXHj6snxMD/AKteP0Z1+jw+HjEer5v2lqfGzyl05D3BJ/zaB/wd&#xA;L7TxV+/MftX+5+Ic32f/AMZHuLw7OYe7V7uxvLN1S6gkgd1DosilSVbcMK9QclKEo8xTDHljMXEg&#xA;+5RAJNBuTkWb138qvJlzp4fWtRiMVzMnp2kLijLGd2cg9C3Qe3zzoOzNGYeuXPo8d292lHJ+6gbi&#xA;OZ8+5JPzp/471j/zC/8AMxsxu2P7we5zvZr+5l/W/QEm/LD/AJTnTf8Anv8A9Q8mY3Zv9/H4/cXO&#xA;7c/xSfw/3QT3860Uavpz/tG3YH5BzT9eZXbA9cfc6/2aP7uY/pfoYv5C/wCUx0r/AIzj9RzB0P8A&#xA;fR97te1f8Wn7n0LnXPnLzv8ANPyVc6kqazp0ZluoE4XMCirPGN1ZQOrLU1HcfLNR2nozP1x5jm9J&#xA;2F2nHF+6maieR7i8gIIJBFCNiDnPPZIizsL6+kaO0gkuHRS7iNS3FFG5NOgGThCUuQtryZYYxciA&#xA;hsg2PW/J6axJ+V1zHo45ahI8qxCoU0ZgH4k0+LjWnvm/0gmdKRD6t3kO0TiGvBy/Rs8umh1HTbsx&#xA;ypLZ3UfVSGjcfqOaMiUDvYL1cZQyxsVKJ+Krd69rd5bC1u7+4uLcEERSyu61HTZiemSnnnIUZEhh&#xA;j0mKEuKMYg+QR/lDyrfeYNUiijiYWSODd3NDwVBuRX+YjYDLdJpZZZAfw9XH7R18NPjJJ9XQPobO&#xA;ufOFk9vBcQvBPGssMqlZI3AKsp2IIOCUQRR5MoTMSCDRCSf4D8n/APVqg+4/1zG/I4f5oc7+VdT/&#xA;ADyui8j+UYnDrpNuWHTknIfc1RiNFhH8IRLtTUkVxyTqOOOKNY41CRqKKigAAeAAzJAA5OCZEmyo&#xA;3WnafdlTd2sNwU2Qyxq5APhyByMscZcwCzx5pw+mRHuK220nS7WT1bazgglpTnHGiNQ9qqAcEcUI&#xA;mwAEz1GSQqUiR5korLGpLNQ8seXtRkMt7p0E0x6ysg5n5sKE5Rk02OZuUQXKw67NjFRnID3qmneX&#xA;9D01uVhYwWz9PUjRQ9P9anL8cljwQh9IAY5tXly/XIy+Lzv85dbu0uLLSoucUIU3Ejiqh2JKqAe/&#xA;Ghr880/a+Y2IDlzek9nNNEiWQ7nl+Pe82ub++ugi3VxLOIxSMSuzhQf5eRNM00pylzNvTwxQh9IA&#xA;vuDJvy48qzazrkVzLGf0bZMJJ3I+FmXdIx41PX2zN7P0pyTBP0h1XbOvGHEYg+uWw/W92zqXgVk8&#xA;EE8TRTxrLE32o3UMp+YO2CUQRRZRmYmwaKETQtDRgyadbKw3DCGMEH7srGCH80fJtOqynnOXzKtf&#xA;adp9/F6V7bRXMXZJUVwPlyBpkp44yFSFsMWaeM3AmJ8kHY+V/LljKJrTTbeGYGqyLGvIfJiKj6Mr&#xA;hpscTYiG7Lrs+QVKciPemmXuKoXNhY3LI1zbxTtH9gyIrlflyBpkZQjLmLbIZZx+kke50NhYwv6k&#xA;NvFG42DIiqd/cDEQiOQWWWchRJPxddafYXfH63bRXHCvD1UV6V605A0wSxxlzAK4804fSSPcVODR&#xA;9It5VlgsbeGVfsyRxIrCu2xArgjhgDYA+TKWpySFGUiPeUXljS7FUtvfLfl++mM13p1tPMesrxKW&#xA;PzalTlM9PjkbMQS5OLW5sYqM5Ae9FWWm6fYRejZW0VtEeqRIqA/PiBXJwxxiKiAGvLmnkNzJkfNQ&#xA;OgaESSdNtST1Pox/805HwMf80fJn+bzfz5fMouC3t7eIRW8SQxL9mONQqiu+wFBlkYgChs0zmZGy&#xA;bKy80+wvY/TvLaK5j7JMiuPuYHIzxxl9QBZY804G4kx9xpLE8leUlk9QaTa8j2Maldv8k7ZSNHh/&#xA;mhyj2nqSK45fNN4IIIIligjWKJBRI0AVQPYDbMgRAFBw5SMjZNlfhYuxV2KuxV2KuxV2KuxV2Kux&#xA;VB6t+h/qjfpb6v8AVP2vrXD0/wDh9sry8Feuq82/T+Lxfu+Li/o3f2MQP/KoPU/48OXL341r/wAD&#xA;TNf/AIHf8LuP9cq/jZlp36O+pRfo30fqVP3P1fj6VP8AJ4fDmxx8PCOGuHydLm4+I8d8XW+aJybU&#xA;7FXYq7FXYq7FXYq7FXYq7FXYq7FXYq7FXYq7FXYq7FXYq//Z</xmpGImg:image>
               </rdf:li>
            </rdf:Alt>
         </xmp:Thumbnails>
         <xmpTPg:MaxPageSize rdf:parseType="Resource">
            <stDim:w>358.000000</stDim:w>
            <stDim:h>101.800003</stDim:h>
            <stDim:unit>Pixels</stDim:unit>
         </xmpTPg:MaxPageSize>
         <xmpTPg:NPages>1</xmpTPg:NPages>
         <xmpTPg:HasVisibleTransparency>False</xmpTPg:HasVisibleTransparency>
         <xmpTPg:HasVisibleOverprint>False</xmpTPg:HasVisibleOverprint>
         <xmpTPg:PlateNames>
            <rdf:Seq>
               <rdf:li>Cyan</rdf:li>
               <rdf:li>Magenta</rdf:li>
               <rdf:li>Yellow</rdf:li>
            </rdf:Seq>
         </xmpTPg:PlateNames>
         <xmpTPg:SwatchGroups>
            <rdf:Seq>
               <rdf:li rdf:parseType="Resource">
                  <xmpG:groupName>Default Swatch Group</xmpG:groupName>
                  <xmpG:groupType>0</xmpG:groupType>
               </rdf:li>
            </rdf:Seq>
         </xmpTPg:SwatchGroups>
         <dc:format>image/svg+xml</dc:format>
      </rdf:Description>
   </rdf:RDF>
</x:xmpmeta>
                                                                                                    
                                                                                                    
                                                                                                    
                                                                                                    
                                                                                                    
                                                                                                    
                                                                                                    
                                                                                                    
                                                                                                    
                                                                                                    
                                                                                                    
                                                                                                    
                                                                                                    
                                                                                                    
                                                                                                    
                                                                                                    
                                                                                                    
                                                                                                    
                                                                                                    
                                                                                                    
                           
<?xpacket end="w"?>
	</metadata>
<g>
	<path class="st0" d="M305.4,44.9c0,7.6,0,15.1,0,22.7c0,3.9-0.1,3.9-3.7,3.9c-2.3,0-4.5,0-6.8,0c-1.7,0-3.5,0.1-3.6-2.4
		c-0.1-1-0.7-1.2-1.5-0.6c-0.5,0.4-0.9,0.7-1.4,1c-6.8,4.6-15.6,3.4-21-3c-6.7-8-6.6-21.8,0.3-29.7c5-5.8,13.7-7.2,20.3-3.2
		c0.4,0.2,0.8,0.6,1.2,0.8c1.9,1.2,2.2,1.1,2.2-1.1c0.1-3.2,0-6.5,0-9.7c0-0.9,0-1.9,0.1-2.9c0-1.4,0.6-2.3,2.2-2.3
		c3.2,0,6.5,0,9.7,0c2.1,0,2.2,1.3,2.2,2.9c0,5.6,0,11,0,16.6C305.4,40.3,305.4,42.6,305.4,44.9z M291.6,51.7
		c-0.1-4.9-3.5-8.4-7.9-8.4c-4.5,0.1-7.6,3.7-7.6,8.7c0.1,5,3.2,8.6,7.7,8.6C288.5,60.5,291.7,56.9,291.6,51.7z"/>
	<path class="st0" d="M163.5,45c0-7.4,0-14.9,0-22.3c0-4.1,0-4.1,4.3-4.1c2.2,0,4.3-0.1,6.5,0c2.9,0.1,3.1,0.2,3.2,3.1
		c0.1,3.1,0,6.3,0,9.4c0,0.9-0.1,1.7,0,2.5c0.1,2.4,0.6,2.7,2.5,1.2c2.5-1.9,5.1-3.2,8.2-3.2c6.8-0.1,12.3,2.6,15.5,8.7
		c4.3,7.9,4.3,16.1-0.4,24.1c-4.9,8.4-14.9,10.6-23,5.3c-1.5-0.9-2.5-1.5-3,0.8c-0.1,0.4-1.1,1-1.7,1c-3.4,0.1-6.7,0.1-10.1,0.1
		c-1.3,0-2-0.6-2-2c0-0.9-0.1-1.7-0.1-2.5c0-3.7,0-7.4,0-11.2C163.5,52.2,163.5,48.6,163.5,45z M192.8,51.8c0-4.8-3.5-8.6-7.9-8.5
		c-4.5,0.1-7.7,3.6-7.7,8.6c0,5,3.2,8.6,7.6,8.7C189.5,60.6,192.8,56.9,192.8,51.8z"/>
	<path class="st0" d="M123.5,32.3c8.2,0.1,6.2-1,8.8,6.3c1.5,4.4,3,8.9,4.5,13.3c0.2,0.6,0.7,1.2,1.1,1.8c0.4-0.6,0.9-1.1,1.1-1.7
		c1.7-5.3,3.3-10.5,5-15.8c1.3-4,1.3-4,5.5-4c2.4,0,4.8-0.1,7.2,0c2.7,0.1,2.8,0.3,1.9,2.7c-2.2,6.1-4.5,12.1-6.8,18.2
		c-2.2,5.7-4.3,11.5-6.4,17.2c-0.7,1.9-1.6,3.7-2.5,5.6c-2.4,4.5-6.1,7-11.2,7.2c-4.1,0.1-8.1-0.6-11.9-2.3
		c-1.5-0.7-1.9-1.6-1.2-3.1c0.6-1.1,1-2.2,1.4-3.2c1.7-3.9,1.7-3.9,5.9-2.7c0.4,0.1,0.9,0.2,1.4,0.3c3,0.2,3.9-0.9,2.8-3.7
		c-4.1-10.1-8.1-20-12.2-30.1c-2.5-6.4-2.8-5.8,3.8-5.8C122.3,32.3,122.8,32.3,123.5,32.3z"/>
	<path class="st0" d="M29,31.5c5.6,0,11-0.1,16.6,0c5.6,0.1,10.3,2.2,14,6.4c1.8,2.1,1.7,2.3-0.3,4c-1.7,1.4-3.5,2.5-5.2,3.9
		c-1.3,1.1-2.5,1.4-3.7-0.1c-0.6-0.7-1.4-1.3-2.3-1.7c-4.2-1.9-8.7,0.1-10.2,4.4c-0.4,1.3-0.6,2.8-0.5,4.3c0.4,6.8,6.7,9.9,12.4,6.2
		c3-1.9,3-1.9,5.8,0c1.3,0.9,2.5,1.8,3.7,2.7c2.2,1.7,2.2,2,0.4,4.3c-3.7,4.4-8.6,6.5-14.2,6.7c-4.3,0.1-8.7,0.1-13,0.1
		c-0.9,0-2.1-0.1-2.7-0.6c-1-0.9-1.7-2.2-2.5-3.2c1-0.4,2-0.9,3.1-1.1c1.7-0.2,3.4,0.1,5-0.2c0.8-0.1,1.4-1.2,2.2-1.9
		c-0.7-0.6-1.4-1.9-2.2-1.9c-2.5-0.3-5-0.1-7.6-0.1c-1.9,0-3.5-0.6-4.5-2.4c-0.6-1.2-0.4-2.2,1.2-2.2c1.4-0.1,2.9,0,4.3-0.1
		c0.9-0.1,2,0.1,2.8-0.4c0.7-0.4,1.6-1.4,1.6-2c0-0.6-1.2-1.7-1.8-1.7c-2.4-0.2-4.8,0-7.2-0.2c-1.5-0.1-3-0.6-4.3-1.4
		c-0.6-0.4-0.8-1.6-1.2-2.5c0.8-0.4,1.6-0.9,2.5-1c1.7-0.1,3.4-0.1,5-0.1c1.3-0.1,2.5-0.4,2.6-1.9c0.1-1.7-1.2-2.2-2.6-2.2
		c-2.3-0.1-4.6,0.2-6.8-0.1c-1.5-0.2-3.2-0.9-4.3-2c-1.4-1.3-0.6-2.7,1.3-2.8c1.7-0.1,3.4,0,5-0.1c1.4-0.1,3.2,0.1,3.2-1.9
		c0.1-2-1.7-1.9-3.2-2c-2.5-0.1-5-0.2-7.6-0.3c-1.7-0.1-2.9-0.9-3.7-2.5c-0.9-1.6-0.6-2.2,1.3-2.2c3.2-0.1,6.5-0.1,9.7-0.1
		C23.8,31.4,26.4,31.4,29,31.5C29,31.4,29,31.4,29,31.5z"/>
	<path class="st0" d="M327.8,31.5c4.7,0,9,1.3,13.2,3.2c1.7,0.8,2.4,1.8,1.2,3.6c-1.2,1.9-1.9,4.7-3.7,5.6c-1.4,0.7-3.9-1-6-1.5
		c-1.5-0.4-3-0.7-4.5-0.9c-1.4-0.1-3.2-0.5-3.6,1.4c-0.3,1.7,1.4,1.9,2.6,2.5c0.8,0.4,1.6,0.5,2.4,0.7c2.5,0.9,5,1.6,7.4,2.7
		c4.2,1.9,7.1,4.8,7.2,9.8c0.1,5.1-1.8,9.2-6.5,11.5c-1.3,0.6-2.7,1.2-4,1.5c-7.8,1.7-15,0-21.8-3.7c-1.7-0.9-2.2-2-1-3.7
		s2-4.2,3.7-5.3c2-1.3,3.7,1.4,5.8,1.8c2.8,0.6,5.6,1.2,8.4,1.5c0.8,0.1,1.7-0.9,2.6-1.5c-0.6-0.8-1.2-1.8-1.9-2.2
		c-1.2-0.6-2.7-0.9-4.1-1.4c-2.6-0.9-5.3-1.7-7.7-2.9c-3.9-1.9-6.1-5-6.1-9.4c-0.1-4.7,1.7-8.4,5.7-11
		C320.4,32.1,324,31.4,327.8,31.5z"/>
	<path class="st0" d="M89.8,54c0-2.5-0.1-5,0-7.6c0.1-1.7-0.4-2.8-2.4-2.7c-1.9,0.1-2.5-1.2-2.4-2.8c0-1.4,0-2.9,0-4.3
		c0-3.4,0.1-3.3,3.3-4.4c0.6-0.2,1.3-1.3,1.4-2c0.2-1.8,0.1-3.6,0.1-5.4c-0.1-1.7,0.6-2.5,2.3-2.5c3.1,0.1,6.3,0,9.4,0
		c1.5,0,2.2,0.7,2.2,2.2c0,1.7,0.1,3.4,0,5c-0.1,1.9,0.6,2.9,2.7,2.7c1.4-0.1,2.9,0,4.3,0c1.4,0,2.3,0.5,2.3,2.1c0,2.4,0,4.8,0,7.2
		c0,1.5-0.9,2.1-2.3,2.1c-1.6,0-3.1,0.1-4.7,0.1c-1.4,0-2.2,0.5-2.2,2.1c0,3.6-0.1,7.2,0.1,10.8c0.1,2.7,1.5,3.7,4.3,3.7
		c0.7,0,1.4-0.1,2.1-0.4c1.8-0.4,2.5,0.4,2.4,2.1c0,1.7,0.1,3.4,0,5c-0.1,3.1-0.3,3.5-3.2,4.4c-3.7,1.2-7.6,1.3-11.4,0.4
		c-4.7-1.2-7.6-4.8-8.1-9.9C89.7,59.4,89.8,56.7,89.8,54C89.9,54,89.8,54,89.8,54z"/>
	<path class="st0" d="M233.6,51.7c0-5.3,0-10.5,0-15.8c0-3.5,0.1-3.5,3.7-3.6c2.3,0,4.5,0,6.8,0c3.2,0,3.2,0.1,3.6,3.3
		c0.1,0.6,0.3,1.1,0.4,1.7c0.4-0.4,1-0.6,1.4-1c2-2.4,4.4-4,7.6-4.5c2.2-0.4,2.9,0.1,3,2.3c0.1,3.2,0,6.5,0,9.7
		c0,1.7-0.6,2.4-2.3,2.5c-6.8,0.5-10.2,5.1-10,12.4c0.1,3.2,0.1,6.5,0,9.7c-0.1,2.7-0.2,3-2.8,3c-2.9,0.1-5.8-0.1-8.7,0
		c-2.1,0.1-2.7-0.9-2.7-2.8C233.6,63,233.6,57.4,233.6,51.7z"/>
	<path class="st0" d="M80,51.8c0,5.6,0,11,0,16.6c0,2.9-0.2,3-3.1,3.1c-2.7,0.1-5.6,0-8.3,0c-1.9,0.1-2.5-0.8-2.5-2.6
		c0.1-11.4,0.1-22.8,0-34.2c0-1.7,0.6-2.4,2.4-2.4c2.9,0.1,5.8-0.1,8.7,0c2.7,0.1,2.9,0.2,2.9,2.9C80.1,40.8,80,46.3,80,51.8z"/>
	<path class="st0" d="M212.4,51.7c0-5.4,0-10.8,0-16.2c0-3.1,0.1-3.2,3.3-3.2c2.5-0.1,5-0.1,7.6,0c2.9,0.1,3,0.1,3,3.1
		c0.1,9.1,0,18.2,0,27.3c0,2.2,0,4.3,0,6.5c0,1.5-0.7,2.2-2.2,2.2c-3,0-6-0.1-9,0.1c-2,0.1-2.7-0.9-2.7-2.8
		C212.5,63.1,212.4,57.4,212.4,51.7L212.4,51.7z"/>
	<path class="st0" d="M73,29c-0.1,0-0.2,0-0.4,0c-2.1-0.2-4.2-0.4-6.3-0.7c-0.1-2.7-0.4-5.4-0.3-8.1c0-0.5,1.2-1.4,1.9-1.4
		c3.5-0.1,6.9-0.1,10.5-0.1c1.3,0,1.9,0.7,2,2c0,0.1,0,0.2,0,0.4C80.5,30.8,81.5,28.7,73,29z"/>
	<path class="st0" d="M219.5,18.6c1.7,0,3.4,0,5,0c1.4,0,2.2,0.6,2.2,2.2c0,1.9,0,3.8,0,5.8c0,1.6-0.6,2.5-2.3,2.5
		c-3.2,0-6.5,0-9.7,0c-1.7,0-2.2-0.8-2.5-2.4C211.5,18.8,211.6,18.5,219.5,18.6z"/>
</g>
</svg>
